<?xml version="1.0" encoding="UTF-8"?><svg id="Capa_1" xmlns="http://www.w3.org/2000/svg" viewBox="0 0 554.97 141.39"><defs><style>.cls-1{fill:#fff;}</style></defs><path class="cls-1" d="M73.84,139.04c-4.45,0-7.92-1.83-10.41-5.5l-22.58-32.6v31.42c0,4.45-2.23,6.68-6.68,6.68H6.68c-4.45,0-6.68-2.23-6.68-6.68V6.68C0,2.23,2.23,0,6.68,0h27.49c4.45,0,6.68,2.23,6.68,6.68v58.13l20.82-26.31c2.88-3.67,6.35-5.5,10.41-5.5h27.89c2.49,0,4.09.88,4.81,2.65.72,1.77.23,3.7-1.47,5.79l-33.58,40.26,35.74,48.9c1.57,2.23,2.03,4.19,1.37,5.89-.65,1.7-2.09,2.55-4.32,2.55h-28.67Z"/><path class="cls-1" d="M161.03,17.09c0,4.45-2.23,6.68-6.68,6.68h-28.28c-4.45,0-6.68-2.23-6.68-6.68V6.68c0-4.45,2.23-6.68,6.68-6.68h28.28c4.45,0,6.68,2.23,6.68,6.68v10.41ZM160.64,132.36c0,4.45-2.23,6.68-6.68,6.68h-27.49c-4.45,0-6.68-2.23-6.68-6.68V39.67c0-4.45,2.23-6.68,6.68-6.68h27.49c4.45,0,6.68,2.23,6.68,6.68v92.69Z"/><path class="cls-1" d="M248.81,128.24c-2.75,3.8-7.04,6.94-12.86,9.43-5.83,2.49-11.42,3.73-16.79,3.73-13.62,0-23.96-4.61-31.03-13.84s-10.6-23.07-10.6-41.53,3.53-32.3,10.6-41.53,17.41-13.85,31.03-13.85c5.24,0,10.57,1.05,16,3.14s9.39,4.97,11.88,8.64V6.68c0-4.45,2.23-6.68,6.68-6.68h27.49c4.45,0,6.68,2.23,6.68,6.68v125.68c0,4.45-2.23,6.68-6.68,6.68h-23.96c-3.67,0-5.96-1.7-6.87-5.11l-1.57-5.69ZM243.9,67.36c-2.36-3.8-5.96-5.7-10.8-5.7s-8.41,1.87-10.7,5.6c-2.29,3.73-3.44,9.98-3.44,18.75s1.15,15.02,3.44,18.75c2.29,3.73,5.86,5.6,10.7,5.6s8.44-1.9,10.8-5.7c2.36-3.8,3.54-10.02,3.54-18.66s-1.18-14.86-3.54-18.66Z"/><path class="cls-1" d="M381.37,139.04c-4.45,0-7.92-1.83-10.41-5.5l-22.58-32.6v31.42c0,4.45-2.23,6.68-6.68,6.68h-27.49c-4.45,0-6.68-2.23-6.68-6.68V6.68c0-4.45,2.23-6.68,6.68-6.68h27.49c4.45,0,6.68,2.23,6.68,6.68v58.13l20.82-26.31c2.88-3.67,6.35-5.5,10.41-5.5h27.89c2.49,0,4.09.88,4.81,2.65.72,1.77.23,3.7-1.47,5.79l-33.58,40.26,35.74,48.9c1.57,2.23,2.03,4.19,1.37,5.89-.65,1.7-2.09,2.55-4.32,2.55h-28.67Z"/><path class="cls-1" d="M468.56,17.09c0,4.45-2.23,6.68-6.68,6.68h-28.28c-4.45,0-6.68-2.23-6.68-6.68V6.68c0-4.45,2.23-6.68,6.68-6.68h28.28c4.45,0,6.68,2.23,6.68,6.68v10.41ZM468.17,132.36c0,4.45-2.23,6.68-6.68,6.68h-27.49c-4.45,0-6.68-2.23-6.68-6.68V39.67c0-4.45,2.23-6.68,6.68-6.68h27.49c4.45,0,6.68,2.23,6.68,6.68v92.69Z"/><path class="cls-1" d="M532.98,66.38v36.13c0,3.27.69,5.53,2.06,6.78,1.37,1.24,3.76,1.87,7.17,1.87.52,0,1.6-.1,3.24-.29,1.64-.2,2.98-.29,4.03-.29,3.67,0,5.5,2.03,5.5,6.09v15.71c0,2.09-.52,3.63-1.57,4.61s-2.68,1.73-4.91,2.26c-4.98,1.18-11.19,1.77-18.66,1.77-12.83,0-22.19-2.59-28.08-7.76-5.89-5.17-8.84-13.91-8.84-26.22v-40.65h-6.28c-4.45,0-6.68-2.23-6.68-6.68v-15.32c0-4.45,2.23-6.68,6.68-6.68h6.68V14.53c0-3.93,2.29-5.89,6.87-5.89h25.53c4.58,0,6.87,1.96,6.87,5.89v23.17h15.71c4.45,0,6.68,2.23,6.68,6.68v15.32c0,4.45-2.23,6.68-6.68,6.68h-15.32Z"/></svg>